<svg version="1.1" id="Layer_1" xmlns="http://www.w3.org/2000/svg" xmlns:xlink="http://www.w3.org/1999/xlink" x="0px" y="0px"
	 width="100%" viewBox="0 0 225 225" enable-background="new 0 0 225 225" xml:space="preserve">
<path fill="#02973A" opacity="1.000000" stroke="none" 
	d="
M125.000000,226.000000 
	C116.979103,226.000000 108.958199,226.000000 100.310028,225.633667 
	C97.890793,224.916992 96.105232,224.529190 94.305939,224.221817 
	C49.387962,216.548676 14.014388,182.957153 3.778690,138.268936 
	C2.915036,134.498291 1.929117,130.755646 1.000000,127.000000 
	C1.000000,118.312439 1.000000,109.624870 1.366549,100.308426 
	C7.615598,53.689407 40.004627,16.660578 84.849174,4.710298 
	C89.872322,3.371717 94.948441,2.231959 100.000000,0.999999 
	C108.354233,1.000000 116.708466,1.000000 125.697632,1.372252 
	C127.652679,1.868769 128.981812,1.932079 130.291580,2.126123 
	C174.417618,8.663391 210.924347,41.518276 222.187607,84.872314 
	C223.576294,90.217583 224.734833,95.622643 226.000000,101.000000 
	C226.000000,109.020897 226.000000,117.041801 225.671539,125.626862 
	C225.077576,127.830254 224.858643,129.478592 224.539841,131.107376 
	C215.315720,178.233307 187.727524,208.698730 141.632263,222.247131 
	C136.190598,223.846573 130.548950,224.765579 125.000000,226.000000 
M123.077095,19.179066 
	C113.956535,19.596292 104.599373,18.839928 95.754227,20.623219 
	C42.547611,31.350353 9.479900,81.191605 21.236509,134.012329 
	C32.102036,182.829544 72.867928,207.001617 113.835510,208.825668 
	C120.127609,209.105804 126.615036,207.381287 132.860489,205.930908 
	C167.432236,197.902405 191.400284,177.253769 202.836151,143.708099 
	C214.371399,109.870895 207.713333,78.669044 184.679581,51.421871 
	C168.883270,32.736053 148.204926,22.474377 123.077095,19.179066 
z"/>
<path fill="#FEFEFE" opacity="1.000000" stroke="none" 
	d="
M125.468658,226.000000 
	C130.548950,224.765579 136.190598,223.846573 141.632263,222.247131 
	C187.727524,208.698730 215.315720,178.233307 224.539841,131.107376 
	C224.858643,129.478592 225.077576,127.830254 225.671539,126.095520 
	C226.000000,159.260635 226.000000,192.521255 226.000000,226.000000 
	C192.646088,226.000000 159.291702,226.000000 125.468658,226.000000 
z"/>
<path fill="#FEFEFE" opacity="1.000000" stroke="none" 
	d="
M226.000000,100.531342 
	C224.734833,95.622643 223.576294,90.217583 222.187607,84.872314 
	C210.924347,41.518276 174.417618,8.663391 130.291580,2.126123 
	C128.981812,1.932079 127.652679,1.868769 126.166290,1.372252 
	C159.260269,1.000000 192.520523,1.000000 226.000000,1.000000 
	C226.000000,34.020573 226.000000,67.041626 226.000000,100.531342 
z"/>
<path fill="#FEFEFE" opacity="1.000000" stroke="none" 
	d="
M1.000000,127.468658 
	C1.929117,130.755646 2.915036,134.498291 3.778690,138.268936 
	C14.014388,182.957153 49.387962,216.548676 94.305939,224.221817 
	C96.105232,224.529190 97.890793,224.916992 99.841370,225.633667 
	C67.073067,226.000000 34.146137,226.000000 1.000000,226.000000 
	C1.000000,193.312759 1.000000,160.625046 1.000000,127.468658 
z"/>
<path fill="#FDFEFE" opacity="1.000000" stroke="none" 
	d="
M99.531342,0.999999 
	C94.948441,2.231959 89.872322,3.371717 84.849174,4.710298 
	C40.004627,16.660578 7.615598,53.689407 1.366549,99.839767 
	C1.000000,67.073067 1.000000,34.146133 1.000000,1.000000 
	C33.687233,1.000000 66.374962,1.000000 99.531342,0.999999 
z"/>
<path fill="#FBFDFC" opacity="1.000000" stroke="none" 
	d="
M123.532455,19.236103 
	C148.204926,22.474377 168.883270,32.736053 184.679581,51.421871 
	C207.713333,78.669044 214.371399,109.870895 202.836151,143.708099 
	C191.400284,177.253769 167.432236,197.902405 132.860489,205.930908 
	C126.615036,207.381287 120.127609,209.105804 113.835510,208.825668 
	C72.867928,207.001617 32.102036,182.829544 21.236509,134.012329 
	C9.479900,81.191605 42.547611,31.350353 95.754227,20.623219 
	C104.599373,18.839928 113.956535,19.596292 123.532455,19.236103 
M138.847366,137.798782 
	C144.210327,132.871368 149.573273,127.943947 154.839798,123.947502 
	C154.828690,141.407852 154.793533,158.868286 154.858505,176.328339 
	C154.863037,177.543350 155.611313,178.755615 156.686493,179.849396 
	C185.190796,159.514343 197.045212,132.049393 190.965637,97.514915 
	C183.765884,56.617462 140.760239,27.370621 100.231911,35.267696 
	C56.860764,43.718712 29.556435,81.095360 35.134651,124.885483 
	C36.011604,131.769730 38.523613,138.445709 40.630116,146.569763 
	C57.058140,130.131653 72.178246,115.002258 87.937134,99.233696 
	C95.216095,106.666679 102.174522,113.772354 108.727333,120.463821 
	C117.750381,111.439842 126.776642,102.412651 136.545914,92.642387 
	C132.983902,89.414627 129.108231,85.902634 124.568390,81.788795 
	C140.892700,79.384056 156.245895,77.122368 172.297440,74.757805 
	C169.926590,90.803131 167.663986,106.115807 165.401398,121.428474 
	C164.853836,121.748810 164.306259,122.069145 163.758698,122.389481 
	C162.618759,120.743179 161.685913,118.893951 160.304550,117.484222 
	C152.618683,109.640526 153.513382,109.507011 145.841995,117.289291 
	C143.035187,120.136696 140.189148,122.945427 137.365143,125.775932 
	C127.984398,135.178238 118.605515,144.582428 108.875893,154.336792 
	C102.480515,147.830673 96.387901,141.705475 90.388802,135.490005 
	C88.285538,133.310898 86.666008,132.970795 84.297707,135.384460 
	C74.383842,145.488174 64.289413,155.414688 54.287514,165.379883 
	C58.690453,171.613449 58.956890,171.562454 64.286713,166.459152 
	C68.747955,162.187485 73.420219,158.136230 77.890953,154.922043 
	C77.878105,163.412430 77.818726,171.903259 77.899513,180.392761 
	C77.912552,181.763382 78.549240,183.128052 79.353996,184.930313 
	C80.904846,185.553452 82.455688,186.176575 84.488022,187.039291 
	C84.666992,187.028748 84.845955,187.018219 85.352654,187.352692 
	C85.352654,187.352692 85.807014,187.494156 86.512703,187.881393 
	C86.735435,187.140945 87.151947,186.400528 87.152130,185.660034 
	C87.155403,172.445038 87.108185,159.230026 87.752449,146.056580 
	C93.066246,151.062836 98.380035,156.069092 103.861336,161.991058 
	C103.861336,171.889359 103.861336,181.787643 103.861336,192.124908 
	C105.863602,192.124908 107.460526,192.124908 109.575096,192.452316 
	C110.656166,192.294861 111.737236,192.137390 113.175987,191.105484 
	C113.135155,181.391632 113.094315,171.677795 113.466995,161.455505 
	C118.968430,156.305679 124.469864,151.155853 129.950287,146.942459 
	C130.004440,161.287354 130.058609,175.632233 130.185928,190.659073 
	C132.121490,190.103439 134.057053,189.547791 136.879547,189.010147 
	C137.284515,187.415878 138.027603,185.824646 138.041962,184.226868 
	C138.180374,168.836914 138.196091,153.445831 138.847366,137.798782 
z"/>
<path fill="#03973A" opacity="1.000000" stroke="none" 
	d="
M129.971298,146.006027 
	C124.469864,151.155853 118.968430,156.305679 113.009560,162.044983 
	C112.640854,172.416290 112.729576,182.198120 112.818306,191.979919 
	C111.737236,192.137390 110.656166,192.294861 109.027161,192.039185 
	C105.887421,190.917999 104.864227,189.356430 104.942055,186.553238 
	C105.130714,179.757980 105.086243,172.952087 104.940460,166.154663 
	C104.903969,164.453430 104.129257,162.768021 103.693825,161.075348 
	C98.380035,156.069092 93.066246,151.062836 87.154732,146.360870 
	C86.371246,148.631393 86.042206,150.596237 86.023277,152.564072 
	C85.911270,164.207047 85.871246,175.850723 85.807014,187.494156 
	C85.807014,187.494156 85.352654,187.352692 85.088631,187.060669 
	C84.558197,186.554535 84.285507,186.564896 84.006531,186.799713 
	C82.455688,186.176575 80.904846,185.553452 79.148010,184.210098 
	C78.961456,177.377487 79.102310,171.262177 78.955261,165.153793 
	C78.865524,161.426147 78.332802,157.709152 77.999046,153.987381 
	C73.420219,158.136230 68.747955,162.187485 64.286713,166.459152 
	C58.956890,171.562454 58.690453,171.613449 54.287514,165.379883 
	C64.289413,155.414688 74.383842,145.488174 84.297707,135.384460 
	C86.666008,132.970795 88.285538,133.310898 90.388802,135.490005 
	C96.387901,141.705475 102.480515,147.830673 108.875893,154.336792 
	C118.605515,144.582428 127.984398,135.178238 137.365143,125.775932 
	C140.189148,122.945427 143.035187,120.136696 145.841995,117.289291 
	C153.513382,109.507011 152.618683,109.640526 160.304550,117.484222 
	C161.685913,118.893951 162.618759,120.743179 163.758698,122.389481 
	C164.306259,122.069145 164.853836,121.748810 165.401398,121.428474 
	C167.663986,106.115807 169.926590,90.803131 172.297440,74.757805 
	C156.245895,77.122368 140.892700,79.384056 124.568390,81.788795 
	C129.108231,85.902634 132.983902,89.414627 136.545914,92.642387 
	C126.776642,102.412651 117.750381,111.439842 108.727333,120.463821 
	C102.174522,113.772354 95.216095,106.666679 87.937134,99.233696 
	C72.178246,115.002258 57.058140,130.131653 40.630116,146.569763 
	C38.523613,138.445709 36.011604,131.769730 35.134651,124.885483 
	C29.556435,81.095360 56.860764,43.718712 100.231911,35.267696 
	C140.760239,27.370621 183.765884,56.617462 190.965637,97.514915 
	C197.045212,132.049393 185.190796,159.514343 156.347687,179.442902 
	C156.006470,162.266678 156.038025,145.496811 155.954834,128.727493 
	C155.945374,126.822205 155.291351,124.920105 154.936218,123.016525 
	C149.573273,127.943947 144.210327,132.871368 138.260101,138.228455 
	C137.448380,140.434387 137.037003,142.209824 137.029327,143.987000 
	C136.973572,156.892151 137.044052,169.797943 136.953979,182.702682 
	C136.939331,184.801300 136.328094,186.895767 135.992615,188.992142 
	C134.057053,189.547791 132.121490,190.103439 130.372314,189.972824 
	C130.657867,175.439819 130.767853,161.593124 130.818207,147.746185 
	C130.820312,147.167175 130.266251,146.586121 129.971298,146.006027 
M81.272987,84.787201 
	C83.689690,86.637146 86.106400,88.487091 88.289948,90.158562 
	C89.531197,88.048927 90.035744,85.964134 91.296211,85.287506 
	C94.600876,83.513527 96.627930,81.253418 95.961182,77.422356 
	C95.258308,73.383804 91.866463,72.799927 88.588516,71.893578 
	C87.090775,71.479454 85.878571,70.032669 84.458595,68.997162 
	C88.613640,66.042877 93.588966,70.986809 95.943420,65.582306 
	C92.608246,62.866123 89.507278,60.340687 86.777328,58.117401 
	C85.408600,60.332329 84.422607,61.845024 83.520821,63.406353 
	C82.121407,65.829254 79.408928,68.538292 79.799873,70.655846 
	C80.187836,72.757339 83.699852,74.308647 85.888451,76.042328 
	C87.491051,77.311813 90.743507,79.195740 90.565422,79.590759 
	C89.092949,82.856956 86.293724,81.733040 83.782547,80.814857 
	C82.916237,80.498108 82.184708,79.812744 81.301826,79.237228 
	C79.913826,80.920113 76.737587,82.204941 81.272987,84.787201 
M103.496429,81.319542 
	C99.949821,89.575546 109.449226,87.986748 111.531151,91.562111 
	C109.701683,97.162231 103.820305,88.400261 102.317223,93.893456 
	C104.391151,96.047684 105.981598,97.949013 107.871269,99.481361 
	C108.324570,99.848938 109.936249,99.213303 110.720924,98.637817 
	C111.672745,97.939743 112.433685,96.889900 113.060120,95.860184 
	C114.117851,94.121506 116.074509,91.994415 115.690956,90.552673 
	C115.219429,88.780243 112.846817,87.386642 111.082802,86.127998 
	C109.832825,85.236137 108.229485,84.839523 106.783882,84.221832 
	C106.903809,83.939018 107.023735,83.656197 107.143661,83.373375 
	C110.047287,82.919228 112.950912,82.465073 116.033401,81.982941 
	C113.593330,79.184677 112.187263,76.365364 110.053421,75.614655 
	C108.921196,75.216324 106.523865,78.405571 104.703285,79.981850 
	C104.453423,80.198181 104.236351,80.452377 103.496429,81.319542 
M66.795258,82.520020 
	C68.523361,82.278481 70.251457,82.036942 71.979561,81.795410 
	C70.241768,79.431557 68.038261,78.734734 67.169617,77.254555 
	C65.344818,74.145073 64.522720,73.198608 63.744247,77.628586 
	C63.636944,78.239212 62.516201,78.606087 62.135780,79.246796 
	C61.028206,81.112160 59.014729,83.257629 59.330406,84.917946 
	C59.640495,86.548889 62.365665,87.726501 64.041672,89.089951 
	C65.288658,90.104393 66.552666,91.097946 67.809090,92.100800 
	C66.047508,92.366875 64.292877,92.705948 62.522022,92.874748 
	C61.223347,92.998558 59.903381,92.899025 58.592907,92.899025 
	C58.559452,93.415665 58.526001,93.932312 58.492550,94.448952 
	C60.295383,95.670502 62.757397,96.506721 63.748753,98.202621 
	C65.290825,100.840630 65.806664,100.825363 67.048103,98.207184 
	C67.482376,97.291306 68.738731,96.783615 69.244987,95.879662 
	C70.300713,93.994629 71.991493,91.846733 71.740349,90.040573 
	C71.532829,88.548203 69.005173,87.246246 67.324623,86.133110 
	C66.000931,85.256340 64.401550,84.795799 62.924618,84.150375 
	C63.026566,83.812424 63.128513,83.474464 63.230457,83.136513 
	C64.183334,83.023415 65.136215,82.910309 66.795258,82.520020 
z"/>
<path fill="#02922A" opacity="1.000000" stroke="none" 
	d="
M154.888000,123.482010 
	C155.291351,124.920105 155.945374,126.822205 155.954834,128.727493 
	C156.038025,145.496811 156.006470,162.266678 156.011307,179.502777 
	C155.611313,178.755615 154.863037,177.543350 154.858505,176.328339 
	C154.793533,158.868286 154.828690,141.407852 154.888000,123.482010 
z"/>
<path fill="#009024" opacity="1.000000" stroke="none" 
	d="
M136.436066,189.001144 
	C136.328094,186.895767 136.939331,184.801300 136.953979,182.702682 
	C137.044052,169.797943 136.973572,156.892151 137.029327,143.987000 
	C137.037003,142.209824 137.448380,140.434387 137.959869,138.356613 
	C138.196091,153.445831 138.180374,168.836914 138.041962,184.226868 
	C138.027603,185.824646 137.284515,187.415878 136.436066,189.001144 
z"/>
<path fill="#009024" opacity="1.000000" stroke="none" 
	d="
M129.960785,146.474243 
	C130.266251,146.586121 130.820312,147.167175 130.818207,147.746185 
	C130.767853,161.593124 130.657867,175.439819 130.335739,189.631851 
	C130.058609,175.632233 130.004440,161.287354 129.960785,146.474243 
z"/>
<path fill="#009128" opacity="1.000000" stroke="none" 
	d="
M86.159859,187.687775 
	C85.871246,175.850723 85.911270,164.207047 86.023277,152.564072 
	C86.042206,150.596237 86.371246,148.631393 86.814423,146.340088 
	C87.108185,159.230026 87.155403,172.445038 87.152130,185.660034 
	C87.151947,186.400528 86.735435,187.140945 86.159859,187.687775 
z"/>
<path fill="#009024" opacity="1.000000" stroke="none" 
	d="
M103.777580,161.533203 
	C104.129257,162.768021 104.903969,164.453430 104.940460,166.154663 
	C105.086243,172.952087 105.130714,179.757980 104.942055,186.553238 
	C104.864227,189.356430 105.887421,190.917999 108.768333,191.875488 
	C107.460526,192.124908 105.863602,192.124908 103.861336,192.124908 
	C103.861336,181.787643 103.861336,171.889359 103.777580,161.533203 
z"/>
<path fill="#009127" opacity="1.000000" stroke="none" 
	d="
M77.945000,154.454712 
	C78.332802,157.709152 78.865524,161.426147 78.955261,165.153793 
	C79.102310,171.262177 78.961456,177.377487 78.919838,183.992676 
	C78.549240,183.128052 77.912552,181.763382 77.899513,180.392761 
	C77.818726,171.903259 77.878105,163.412430 77.945000,154.454712 
z"/>
<path fill="#009129" opacity="1.000000" stroke="none" 
	d="
M112.997147,191.542709 
	C112.729576,182.198120 112.640854,172.416290 112.802803,162.299210 
	C113.094315,171.677795 113.135155,181.391632 112.997147,191.542709 
z"/>
<path fill="#009128" opacity="1.000000" stroke="none" 
	d="
M84.247276,186.919495 
	C84.285507,186.564896 84.558197,186.554535 84.924759,186.888153 
	C84.845955,187.018219 84.666992,187.028748 84.247276,186.919495 
z"/>
<path fill="#EFF7F1" opacity="1.000000" stroke="none" 
	d="
M80.987503,84.580307 
	C76.737587,82.204941 79.913826,80.920113 81.301826,79.237228 
	C82.184708,79.812744 82.916237,80.498108 83.782547,80.814857 
	C86.293724,81.733040 89.092949,82.856956 90.565422,79.590759 
	C90.743507,79.195740 87.491051,77.311813 85.888451,76.042328 
	C83.699852,74.308647 80.187836,72.757339 79.799873,70.655846 
	C79.408928,68.538292 82.121407,65.829254 83.520821,63.406353 
	C84.422607,61.845024 85.408600,60.332329 86.777328,58.117401 
	C89.507278,60.340687 92.608246,62.866123 95.943420,65.582306 
	C93.588966,70.986809 88.613640,66.042877 84.458595,68.997162 
	C85.878571,70.032669 87.090775,71.479454 88.588516,71.893578 
	C91.866463,72.799927 95.258308,73.383804 95.961182,77.422356 
	C96.627930,81.253418 94.600876,83.513527 91.296211,85.287506 
	C90.035744,85.964134 89.531197,88.048927 88.289948,90.158562 
	C86.106400,88.487091 83.689690,86.637146 80.987503,84.580307 
z"/>
<path fill="#EAF4EC" opacity="1.000000" stroke="none" 
	d="
M103.750259,81.004288 
	C104.236351,80.452377 104.453423,80.198181 104.703285,79.981850 
	C106.523865,78.405571 108.921196,75.216324 110.053421,75.614655 
	C112.187263,76.365364 113.593330,79.184677 116.033401,81.982941 
	C112.950912,82.465073 110.047287,82.919228 107.143661,83.373375 
	C107.023735,83.656197 106.903809,83.939018 106.783882,84.221832 
	C108.229485,84.839523 109.832825,85.236137 111.082802,86.127998 
	C112.846817,87.386642 115.219429,88.780243 115.690956,90.552673 
	C116.074509,91.994415 114.117851,94.121506 113.060120,95.860184 
	C112.433685,96.889900 111.672745,97.939743 110.720924,98.637817 
	C109.936249,99.213303 108.324570,99.848938 107.871269,99.481361 
	C105.981598,97.949013 104.391151,96.047684 102.317223,93.893456 
	C103.820305,88.400261 109.701683,97.162231 111.531151,91.562111 
	C109.449226,87.986748 99.949821,89.575546 103.750259,81.004288 
z"/>
<path fill="#F2F8F3" opacity="1.000000" stroke="none" 
	d="
M66.442177,82.658615 
	C65.136215,82.910309 64.183334,83.023415 63.230457,83.136513 
	C63.128513,83.474464 63.026566,83.812424 62.924618,84.150375 
	C64.401550,84.795799 66.000931,85.256340 67.324623,86.133110 
	C69.005173,87.246246 71.532829,88.548203 71.740349,90.040573 
	C71.991493,91.846733 70.300713,93.994629 69.244987,95.879662 
	C68.738731,96.783615 67.482376,97.291306 67.048103,98.207184 
	C65.806664,100.825363 65.290825,100.840630 63.748753,98.202621 
	C62.757397,96.506721 60.295383,95.670502 58.492550,94.448952 
	C58.526001,93.932312 58.559452,93.415665 58.592907,92.899025 
	C59.903381,92.899025 61.223347,92.998558 62.522022,92.874748 
	C64.292877,92.705948 66.047508,92.366875 67.809090,92.100800 
	C66.552666,91.097946 65.288658,90.104393 64.041672,89.089951 
	C62.365665,87.726501 59.640495,86.548889 59.330406,84.917946 
	C59.014729,83.257629 61.028206,81.112160 62.135780,79.246796 
	C62.516201,78.606087 63.636944,78.239212 63.744247,77.628586 
	C64.522720,73.198608 65.344818,74.145073 67.169617,77.254555 
	C68.038261,78.734734 70.241768,79.431557 71.979561,81.795410 
	C70.251457,82.036942 68.523361,82.278481 66.442177,82.658615 
z"/>
</svg>